<svg width="183" height="50" viewBox="0 0 183 50" fill="none" xmlns="http://www.w3.org/2000/svg">
<path d="M32.916 41V13.136H36.192V29.552L36.12 28.94C36.624 27.956 37.392 27.14 38.424 26.492C39.48 25.844 40.716 25.52 42.132 25.52C43.548 25.52 44.7 25.94 45.588 26.78C46.5 27.596 46.968 28.664 46.992 29.984V41H43.608V31.172C43.584 30.356 43.344 29.696 42.888 29.192C42.456 28.664 41.772 28.4 40.836 28.4C39.972 28.4 39.192 28.652 38.496 29.156C37.8 29.636 37.248 30.296 36.84 31.136C36.456 31.976 36.264 32.936 36.264 34.016V41H32.916ZM51.5184 33.404C51.5184 31.916 51.8664 30.572 52.5624 29.372C53.2824 28.172 54.2664 27.224 55.5144 26.528C56.7624 25.832 58.1784 25.484 59.7624 25.484C61.3944 25.484 62.8224 25.832 64.0464 26.528C65.2704 27.224 66.2184 28.172 66.8904 29.372C67.5624 30.572 67.8984 31.916 67.8984 33.404C67.8984 34.892 67.5624 36.248 66.8904 37.472C66.2184 38.672 65.2584 39.62 64.0104 40.316C62.7864 41.012 61.3584 41.36 59.7264 41.36C58.1424 41.36 56.7264 41.036 55.4784 40.388C54.2544 39.716 53.2824 38.792 52.5624 37.616C51.8664 36.416 51.5184 35.012 51.5184 33.404ZM54.8664 33.44C54.8664 34.4 55.0824 35.276 55.5144 36.068C55.9464 36.836 56.5224 37.448 57.2424 37.904C57.9864 38.36 58.8024 38.588 59.6904 38.588C60.6264 38.588 61.4544 38.36 62.1744 37.904C62.9184 37.448 63.4944 36.836 63.9024 36.068C64.3104 35.276 64.5144 34.4 64.5144 33.44C64.5144 32.48 64.3104 31.616 63.9024 30.848C63.4944 30.056 62.9184 29.432 62.1744 28.976C61.4544 28.496 60.6264 28.256 59.6904 28.256C58.7784 28.256 57.9504 28.496 57.2064 28.976C56.4864 29.456 55.9104 30.092 55.4784 30.884C55.0704 31.652 54.8664 32.504 54.8664 33.44ZM81.2156 41.36C80.0876 41.36 78.9956 41.096 77.9396 40.568C76.9076 40.04 76.1036 39.332 75.5276 38.444L75.7436 37.4V48.164H72.4316V25.88H75.3116L75.7796 29.696L75.4196 28.652C76.1396 27.74 77.0516 26.984 78.1556 26.384C79.2596 25.784 80.4956 25.484 81.8636 25.484C83.2556 25.484 84.5036 25.82 85.6076 26.492C86.7356 27.164 87.6236 28.1 88.2716 29.3C88.9196 30.5 89.2436 31.904 89.2436 33.512C89.2436 35.12 88.8956 36.512 88.1996 37.688C87.5036 38.864 86.5436 39.776 85.3196 40.424C84.1196 41.048 82.7516 41.36 81.2156 41.36ZM80.5676 38.696C81.5276 38.696 82.4036 38.48 83.1956 38.048C84.0116 37.592 84.6596 36.98 85.1396 36.212C85.6196 35.42 85.8596 34.532 85.8596 33.548C85.8596 32.54 85.6316 31.652 85.1756 30.884C84.7196 30.092 84.1076 29.468 83.3396 29.012C82.5956 28.556 81.7556 28.328 80.8196 28.328C79.9556 28.328 79.1756 28.496 78.4796 28.832C77.7836 29.168 77.2076 29.636 76.7516 30.236C76.2956 30.812 75.9716 31.484 75.7796 32.252V34.736C75.8996 35.504 76.1876 36.188 76.6436 36.788C77.0996 37.388 77.6636 37.856 78.3356 38.192C79.0316 38.528 79.7756 38.696 80.5676 38.696ZM102.555 41.36C101.427 41.36 100.335 41.096 99.2795 40.568C98.2475 40.04 97.4435 39.332 96.8675 38.444L97.0835 37.4V48.164H93.7715V25.88H96.6515L97.1195 29.696L96.7595 28.652C97.4795 27.74 98.3915 26.984 99.4955 26.384C100.599 25.784 101.835 25.484 103.203 25.484C104.595 25.484 105.843 25.82 106.947 26.492C108.075 27.164 108.963 28.1 109.611 29.3C110.259 30.5 110.583 31.904 110.583 33.512C110.583 35.12 110.235 36.512 109.539 37.688C108.843 38.864 107.883 39.776 106.659 40.424C105.459 41.048 104.091 41.36 102.555 41.36ZM101.907 38.696C102.867 38.696 103.743 38.48 104.535 38.048C105.351 37.592 105.999 36.98 106.479 36.212C106.959 35.42 107.199 34.532 107.199 33.548C107.199 32.54 106.971 31.652 106.515 30.884C106.059 30.092 105.447 29.468 104.679 29.012C103.935 28.556 103.095 28.328 102.159 28.328C101.295 28.328 100.515 28.496 99.8195 28.832C99.1235 29.168 98.5475 29.636 98.0915 30.236C97.6355 30.812 97.3115 31.484 97.1195 32.252V34.736C97.2395 35.504 97.5275 36.188 97.9835 36.788C98.4395 37.388 99.0035 37.856 99.6755 38.192C100.371 38.528 101.115 38.696 101.907 38.696ZM121.303 41.36C119.911 41.36 118.639 41.06 117.487 40.46C116.359 39.86 115.459 38.984 114.787 37.832C114.139 36.656 113.815 35.228 113.815 33.548C113.815 31.892 114.163 30.464 114.859 29.264C115.555 28.04 116.479 27.104 117.631 26.456C118.807 25.808 120.091 25.484 121.483 25.484C122.875 25.484 124.051 25.808 125.011 26.456C125.971 27.08 126.703 27.824 127.207 28.688L126.991 29.264L127.315 26.096H130.411V41H127.063V37.112L127.423 37.976C127.327 38.216 127.111 38.528 126.775 38.912C126.463 39.272 126.031 39.644 125.479 40.028C124.951 40.412 124.339 40.736 123.643 41C122.947 41.24 122.167 41.36 121.303 41.36ZM122.203 38.588C123.043 38.588 123.799 38.432 124.471 38.12C125.143 37.808 125.695 37.376 126.127 36.824C126.583 36.248 126.895 35.564 127.063 34.772V31.856C126.871 31.136 126.535 30.512 126.055 29.984C125.575 29.432 124.999 29.012 124.327 28.724C123.655 28.412 122.911 28.256 122.095 28.256C121.207 28.256 120.391 28.472 119.647 28.904C118.903 29.336 118.303 29.936 117.847 30.704C117.415 31.472 117.199 32.372 117.199 33.404C117.199 34.364 117.427 35.24 117.883 36.032C118.339 36.824 118.951 37.448 119.719 37.904C120.487 38.36 121.315 38.588 122.203 38.588ZM145.277 41.36C143.909 41.36 142.697 41.06 141.641 40.46C140.609 39.86 139.781 39.104 139.157 38.192L139.553 37.148V41H136.205V13.136H139.517V29.516L139.409 28.256C140.009 27.44 140.861 26.78 141.965 26.276C143.093 25.748 144.341 25.484 145.709 25.484C147.053 25.484 148.277 25.808 149.381 26.456C150.485 27.104 151.361 28.016 152.009 29.192C152.681 30.344 153.017 31.724 153.017 33.332C153.017 35.012 152.657 36.452 151.937 37.652C151.241 38.852 150.305 39.776 149.129 40.424C147.953 41.048 146.669 41.36 145.277 41.36ZM144.593 38.516C145.553 38.516 146.417 38.288 147.185 37.832C147.953 37.376 148.553 36.764 148.985 35.996C149.417 35.204 149.633 34.304 149.633 33.296C149.633 32.336 149.405 31.472 148.949 30.704C148.517 29.912 147.917 29.288 147.149 28.832C146.405 28.376 145.553 28.148 144.593 28.148C143.777 28.148 143.021 28.304 142.325 28.616C141.629 28.928 141.041 29.36 140.561 29.912C140.081 30.44 139.745 31.064 139.553 31.784V34.772C139.745 35.492 140.069 36.14 140.525 36.716C140.981 37.268 141.557 37.712 142.253 38.048C142.949 38.36 143.729 38.516 144.593 38.516ZM157.545 13.136H160.893V41H157.545V13.136ZM173.598 41.36C171.894 41.36 170.43 41.024 169.206 40.352C167.982 39.656 167.034 38.72 166.362 37.544C165.714 36.344 165.39 34.976 165.39 33.44C165.39 31.976 165.762 30.644 166.506 29.444C167.25 28.244 168.246 27.284 169.494 26.564C170.742 25.844 172.134 25.484 173.67 25.484C175.638 25.484 177.27 26.06 178.566 27.212C179.862 28.364 180.738 29.948 181.194 31.964L168.918 36.284L168.126 34.304L178.206 30.632L177.486 31.1C177.198 30.308 176.718 29.624 176.046 29.048C175.374 28.448 174.498 28.148 173.418 28.148C172.506 28.148 171.69 28.376 170.97 28.832C170.25 29.264 169.686 29.864 169.278 30.632C168.87 31.4 168.666 32.276 168.666 33.26C168.666 34.292 168.882 35.204 169.314 35.996C169.746 36.764 170.334 37.376 171.078 37.832C171.846 38.264 172.71 38.48 173.67 38.48C174.318 38.48 174.942 38.36 175.542 38.12C176.166 37.88 176.742 37.568 177.27 37.184L178.818 39.668C178.074 40.172 177.234 40.58 176.298 40.892C175.386 41.204 174.486 41.36 173.598 41.36Z" fill="#1C1D31"/>
<path d="M7.42012 7.20877C5.28345 12.0839 20.9439 20.7808 15.9286 18.1947C10.9133 15.6087 1.1151 9.93454 3.25177 5.05945C5.38844 0.184363 17.9213 6.42061 22.9366 9.00665C27.9519 11.5927 9.55679 2.33368 7.42012 7.20877Z" fill="#1C1D31"/>
<path d="M17.0734 42.6574C19.5285 37.9621 4.48682 28.0633 9.31721 31.0347C14.1476 34.0062 23.5431 40.4318 21.088 45.1271C18.6329 49.8224 6.54713 42.6224 1.71674 39.6509C-3.11366 36.6795 14.6182 47.3528 17.0734 42.6574Z" fill="#1C1D31"/>
<path d="M0 7.08786L2.81327 10.6175C5.82189 14.3922 9.48187 17.5979 13.6201 20.083L15.1969 21.0299C18.4799 23.0014 21.3651 25.5696 23.7036 28.602C27.5116 33.54 27.9543 40.2909 24.8237 45.6839L23.4615 48.0305C22.3975 40.7593 18.782 34.1035 13.2615 29.2531L11.978 28.1254L11.2346 27.6482C4.23337 23.1546 0 15.4071 0 7.08786Z" fill="#F56F5C"/>
</svg>
