<svg width="35" height="24" viewBox="0 0 35 24" fill="none" xmlns="http://www.w3.org/2000/svg">
<rect x="0.5" y="0.5" width="34" height="23" rx="3.5" fill="white" stroke="#D9D9D9"/>
<path fill-rule="evenodd" clip-rule="evenodd" d="M9.90001 15.241H8.34439C8.23794 15.241 8.1474 15.3183 8.1308 15.4234L7.50163 19.4125C7.48913 19.4912 7.55009 19.5621 7.62993 19.5621H8.37259C8.47905 19.5621 8.56958 19.4848 8.58618 19.3795L8.75588 18.3036C8.77225 18.1982 8.863 18.121 8.96924 18.121H9.46169C10.4864 18.121 11.0778 17.6251 11.2323 16.6424C11.3019 16.2125 11.2353 15.8748 11.0339 15.6381C10.8129 15.3784 10.4206 15.241 9.90001 15.241ZM10.0795 16.6979C9.99443 17.2561 9.56792 17.2561 9.15553 17.2561H8.92078L9.08547 16.2136C9.09525 16.1507 9.14984 16.1042 9.21353 16.1042H9.32112C9.60204 16.1042 9.86706 16.1042 10.004 16.2643C10.0856 16.3599 10.1106 16.5018 10.0795 16.6979ZM14.5501 16.68H13.8052C13.7417 16.68 13.6869 16.7264 13.6771 16.7895L13.6441 16.9978L13.592 16.9223C13.4308 16.6882 13.0712 16.61 12.7122 16.61C11.889 16.61 11.1859 17.2335 11.049 18.1081C10.9778 18.5443 11.079 18.9615 11.3264 19.2524C11.5535 19.5199 11.8783 19.6314 12.2647 19.6314C12.928 19.6314 13.2959 19.2049 13.2959 19.2049L13.2626 19.4119C13.2501 19.4911 13.3111 19.562 13.3904 19.562H14.0615C14.1682 19.562 14.2582 19.4847 14.2751 19.3794L14.6777 16.8297C14.6904 16.7513 14.6297 16.68 14.5501 16.68ZM13.5117 18.1299C13.4398 18.5555 13.102 18.8412 12.6713 18.8412C12.455 18.8412 12.282 18.7718 12.1711 18.6403C12.061 18.5098 12.0191 18.3239 12.0541 18.117C12.1213 17.695 12.4647 17.4 12.889 17.4C13.1004 17.4 13.2724 17.4702 13.3857 17.6029C13.4992 17.7369 13.5442 17.9238 13.5117 18.1299ZM17.769 16.6799H18.5176C18.6224 16.6799 18.6836 16.7975 18.624 16.8835L16.1342 20.4774C16.0939 20.5356 16.0275 20.5702 15.9565 20.5702H15.2089C15.1036 20.5702 15.0421 20.4517 15.1031 20.3655L15.8783 19.2712L15.0538 16.8514C15.0253 16.7673 15.0874 16.6799 15.1769 16.6799H15.9124C16.008 16.6799 16.0923 16.7427 16.1199 16.8341L16.5575 18.2956L17.59 16.7748C17.6304 16.7154 17.6976 16.6799 17.769 16.6799Z" fill="#253B80"/>
<path fill-rule="evenodd" clip-rule="evenodd" d="M25.8854 19.4124L26.5238 15.3504C26.5336 15.2874 26.5882 15.2409 26.6517 15.2407H27.3705C27.4498 15.2407 27.5108 15.3119 27.4982 15.3906L26.8687 19.3795C26.8522 19.4847 26.7617 19.5621 26.6551 19.5621H26.0132C25.9338 19.5621 25.8729 19.4912 25.8854 19.4124ZM20.996 15.2409H19.4401C19.3339 15.2409 19.2434 15.3183 19.2267 15.4234L18.5976 19.4124C18.5851 19.4912 18.646 19.5621 18.7255 19.5621H19.5238C19.598 19.5621 19.6615 19.508 19.6731 19.4343L19.8516 18.3036C19.868 18.1982 19.9587 18.1209 20.065 18.1209H20.5572C21.5821 18.1209 22.1734 17.625 22.328 16.6424C22.3978 16.2125 22.3308 15.8747 22.1295 15.6381C21.9085 15.3784 21.5166 15.2409 20.996 15.2409ZM21.1755 16.6979C21.0906 17.2561 20.6641 17.2561 20.2515 17.2561H20.017L20.1819 16.2136C20.1917 16.1506 20.2458 16.1042 20.3097 16.1042H20.4173C20.698 16.1042 20.9633 16.1042 21.1001 16.2643C21.1818 16.3599 21.2066 16.5018 21.1755 16.6979ZM25.6457 16.68H24.9013C24.8373 16.68 24.783 16.7264 24.7734 16.7895L24.7404 16.9978L24.6881 16.9223C24.5269 16.6882 24.1675 16.61 23.8085 16.61C22.9853 16.61 22.2824 17.2335 22.1455 18.1081C22.0745 18.5443 22.1753 18.9615 22.4228 19.2524C22.6502 19.5199 22.9746 19.6314 23.3611 19.6314C24.0243 19.6314 24.3921 19.2048 24.3921 19.2048L24.359 19.4119C24.3464 19.491 24.4074 19.562 24.4873 19.562H25.158C25.2642 19.562 25.3548 19.4846 25.3714 19.3794L25.7742 16.8297C25.7865 16.7513 25.7256 16.68 25.6457 16.68ZM24.6074 18.1299C24.5359 18.5555 24.1977 18.8412 23.7669 18.8412C23.551 18.8412 23.3777 18.7718 23.2666 18.6403C23.1565 18.5098 23.1152 18.3239 23.1498 18.1169C23.2173 17.6949 23.5603 17.4 23.9845 17.4C24.1961 17.4 24.368 17.4702 24.4814 17.6028C24.5953 17.7368 24.6403 17.9238 24.6074 18.1299Z" fill="#179BD7"/>
<path d="M15.6571 13.8138L15.8484 12.5991L15.4224 12.5892H13.3882L14.8019 3.62534C14.8062 3.59828 14.8205 3.57305 14.8413 3.55513C14.8622 3.53722 14.8889 3.52734 14.9167 3.52734H18.3467C19.4855 3.52734 20.2713 3.7643 20.6816 4.232C20.8739 4.45141 20.9964 4.68068 21.0557 4.933C21.1178 5.19776 21.1189 5.51406 21.0582 5.89985L21.0538 5.92801V6.1752L21.2462 6.28418C21.4082 6.37011 21.5368 6.46848 21.6356 6.58111C21.8002 6.7687 21.9066 7.00712 21.9516 7.28978C21.998 7.5805 21.9826 7.92643 21.9066 8.31807C21.8188 8.76859 21.6769 9.16096 21.4854 9.48202C21.309 9.77785 21.0845 10.0232 20.818 10.2134C20.5635 10.394 20.261 10.5312 19.9191 10.619C19.5878 10.7052 19.2101 10.7488 18.7958 10.7488H18.5288C18.338 10.7488 18.1525 10.8175 18.007 10.9408C17.8611 11.0665 17.7645 11.2383 17.7349 11.4263L17.7148 11.5357L17.3769 13.6767L17.3616 13.7553C17.3576 13.7802 17.3506 13.7927 17.3404 13.8011C17.3312 13.8087 17.3181 13.8138 17.3052 13.8138H15.6571Z" fill="#253B80"/>
<path d="M21.4281 5.95654C21.4179 6.022 21.4062 6.08891 21.3931 6.15766C20.9407 8.48007 19.3932 9.28237 17.4166 9.28237H16.4103C16.1686 9.28237 15.965 9.45789 15.9273 9.69631L15.412 12.964L15.2661 13.8902C15.2416 14.0468 15.3623 14.1879 15.5202 14.1879H17.3052C17.5165 14.1879 17.696 14.0344 17.7293 13.8259L17.7469 13.7352L18.083 11.6026L18.1045 11.4856C18.1374 11.2764 18.3173 11.1229 18.5286 11.1229H18.7956C20.5249 11.1229 21.8787 10.4208 22.2743 8.38902C22.4396 7.54028 22.354 6.83161 21.9167 6.33319C21.7843 6.18289 21.6201 6.0582 21.4281 5.95654Z" fill="#179BD7"/>
<path d="M20.9549 5.76807C20.8859 5.74796 20.8145 5.72967 20.7414 5.71322C20.6679 5.69713 20.5925 5.68287 20.515 5.67044C20.2437 5.62656 19.9464 5.60571 19.6279 5.60571H16.9395C16.8732 5.60571 16.8104 5.6207 16.7541 5.64777C16.6301 5.70737 16.538 5.82476 16.5157 5.96846L15.9437 9.59086L15.9272 9.69653C15.9649 9.45811 16.1686 9.28258 16.4103 9.28258H17.4166C19.3931 9.28258 20.9407 8.47993 21.393 6.15788C21.4065 6.08914 21.4179 6.02222 21.4281 5.95677C21.3137 5.89606 21.1897 5.84413 21.0562 5.79988C21.0234 5.78891 20.9894 5.77831 20.9549 5.76807Z" fill="#222D65"/>
<path d="M16.5156 5.96842C16.5379 5.8247 16.6301 5.70732 16.754 5.64808C16.8107 5.62102 16.8733 5.60603 16.9394 5.60603H19.6279C19.9464 5.60603 20.2437 5.62687 20.5149 5.67076C20.5925 5.68319 20.6679 5.69745 20.7414 5.71354C20.8145 5.73 20.8858 5.74828 20.9549 5.76839C20.9893 5.77863 21.0233 5.78923 21.0565 5.79984C21.19 5.84408 21.314 5.89638 21.4284 5.95672C21.5631 5.09847 21.4274 4.51412 20.9634 3.98498C20.4518 3.40247 19.5284 3.15308 18.3469 3.15308H14.9168C14.6755 3.15308 14.4697 3.32859 14.4323 3.56738L13.0037 12.6234C12.9755 12.8025 13.1137 12.9642 13.2943 12.9642H15.412L15.9437 9.59081L16.5156 5.96842Z" fill="#253B80"/>
</svg>
